# AST/ASF file generated using VICON BodyLanguage
# -----------------------------------------------
:version 1.10
:name VICON
:units
  mass 1.0
  length 0.45
  angle deg
:documentation
   .ast/.asf automatically generated from VICON data using
   VICON BodyBuilder and BodyLanguage model FoxedUp or BRILLIANT.MOD
:root
   order TX TY TZ RX RY RZ
   axis XYZ
   position 0 0 0  
   orientation 0 0 0 
:bonedata
  begin
     id 1 
     name lhipjoint
     direction 0.690799 -0.707083 0.151096 
     length 2.54797 
     axis 0 0 0  XYZ
  end
  begin
     id 2 
     name lfemur
     direction 0.34202 -0.939693 0  
     length 7.21646  
     axis 0 0 20  XYZ
    dof rx ry rz
    limits (-160.0 20.0)
           (-70.0 70.0)
           (-60.0 70.0)
  end
  begin
     id 3 
     name ltibia
     direction 0.34202 -0.939693 0   
     length 8.16759   
     axis 0 0 20   XYZ
    dof rx
    limits (-10.0 170.0)
  end
  begin
     id 4 
     name lfoot
     direction 0.0487203 -0.133858 0.989802   
     length 1.93375   
     axis -90 7.62852e-016 20   XYZ
    dof rx rz
    limits (-45.0 90.0)
           (-70.0 20.0)
  end
  begin
     id 5 
     name ltoes
     direction 1.53453e-011 -4.21783e-011 1   
     length 0.979747   
     axis -90 7.62852e-016 20   XYZ
    dof rx
    limits (-90.0 20.0)
  end
  begin
     id 6 
     name rhipjoint
     direction -0.694693 -0.703425 0.150315   
     length 2.56122  
     axis 0 0 0  XYZ 
  end
  begin
     id 7 
     name rfemur
     direction -0.34202 -0.939693 0   
     length 7.36786   
     axis 0 0 -20   XYZ
    dof rx ry rz
    limits (-160.0 20.0)
           (-70.0 70.0)
           (-70.0 60.0)
  end
  begin
     id 8 
     name rtibia
     direction -0.34202 -0.939693 0   
     length 8.07288   
     axis 0 0 -20   XYZ
    dof rx
    limits (-10.0 170.0)
 end
 begin
     id 9 
     name rfoot
     direction -0.0428397 -0.117701 0.992125   
     length 1.88295  
     axis -90 -7.62852e-016 -20   XYZ
    dof rx rz
    limits (-45.0 90.0)
           (-20.0 70.0)
  end
  begin
     id 10 
     name rtoes
     direction -1.53456e-011 -4.2187e-011 1   
     length 0.955578   
     axis -90 -7.62852e-016 -20   XYZ
    dof rx
    limits (-90.0 20.0)
  end
  begin
     id 11 
     name lowerback
     direction 0.0288145 0.999398 -0.0193241   
     length 1.92149   
     axis 0 0 0   XYZ
    dof rx ry rz
    limits (-20.0 45.0)
           (-30.0 30.0)
           (-30.0 30.0)
  end
  begin
     id 12 
     name upperback
     direction 0.0233784 0.998099 0.0570278   
     length 1.90435   
     axis 0 0 0   XYZ
    dof rx ry rz
    limits (-20.0 45.0)
           (-30.0 30.0)
           (-30.0 30.0)
  end
  begin
     id 13 
     name thorax
     direction 0.0096694 0.997833 0.0650817   
     length 1.9111   
     axis 0 0 0   XYZ
    dof rx ry rz
    limits (-20.0 45.0)
           (-30.0 30.0)
           (-30.0 30.0)
  end
  begin
     id 14 
     name lowerneck
     direction 0.00516803 0.999916 0.0118722   
     length 1.74664   
     axis 0 0 0   XYZ
    dof rx ry rz
    limits (-20.0 45.0)
           (-30.0 30.0)
           (-30.0 30.0)
  end
  begin
     id 15 
     name upperneck
     direction -0.0510851 0.996117 -0.071696   
     length 1.68498   
     axis 0 0 0   XYZ
    dof rx ry rz
    limits (-20.0 45.0)
           (-30.0 30.0)
           (-30.0 30.0)
  end
  begin
     id 16
     name head
     direction -0.019188 0.999436 -0.0275702  
     length 1.83483  
     axis 0 0 0   XYZ
    dof rx ry rz
    limits (-20.0 45.0)
           (-30.0 30.0)
           (-30.0 30.0)
  end
  begin
     id 17 
     name lclavicle
     direction 0.967006 0.248456 -0.0562957  
     length 3.39395  
     axis 0 0 0   XYZ
    dof ry rz
    limits (-20.0 10.0)
           (0.0 20.0)
  end
  begin
     id 18 
     name lhumerus
     direction 1 -4.48962e-011 -5.62711e-019   
     length 5.24318   
     axis 180 -30 -90   XYZ
    dof rx ry rz
    limits (-60.0 90.0)
           (-90.0 90.0)
           (-90.0 90.0)
  end
  begin
     id 19
     name lradius
     direction 1 -4.48966e-011 7.90625e-027   
     length 2.98999   
     axis 180 -30 -90   XYZ
    dof rx
    limits (-10.0 170.0)
  end
  begin
     id 20
     name lwrist
     direction 1 -4.48959e-011 1.61068e-026   
     length 1.49499   
     axis -9.31229e-015 90 90   XYZ
    dof ry
    limits (-180.0 0.0)
 end
  begin
     id 21 
     name lhand
     direction 1 -4.49017e-011 3.22136e-026   
     length 0.726745   
     axis -2.0555e-014 90 90   XYZ
    dof rx rz
    limits (-90.0 90.0)
           (-45.0 45.0)
  end
  begin
     id 22 
     name lfingers
     direction 1 -4.4898e-011 6.44272e-026   
     length 0.58592   
     axis -4.11101e-014 90 90   XYZ
    dof rx
    limits (0.0 90.0)
  end
  begin
     id 23
     name lthumb
     direction 0.707107 -6.34922e-011 0.707107   
     length 0.841268   
     axis -90 45 2.85299e-015   XYZ
    dof rx rz
    limits (-45.0 45.0)
           (-45.0 45.0)
  end
  begin
     id 24 
     name rclavicle
     direction -0.972232 0.230238 0.0419005   
     length 3.40416  
     axis 0 0 0   XYZ 
    dof ry rz
    limits (-10.0 20.0)
           (-20.0 0.0)
  end
  begin
     id 25 
     name rhumerus
     direction -1 -4.48976e-011 2.48487e-027  
     length 5.37045   
     axis 180 30 90   XYZ
    dof rx ry rz
    limits (-90.0 60.0)
           (-90.0 90.0)
           (-90.0 90.0)
  end
  begin
     id 26 
     name rradius
     direction -1 -4.48942e-011 7.87951e-027   
     length 2.92792   
     axis 180 30 90   XYZ
    dof rx
    limits (-10.0 170.0)
  end
  begin
     id 27 
     name rwrist
     direction -1 -4.48969e-011 1.61068e-026   
     length 1.46396   
     axis -9.31229e-015 -90 -90   XYZ
    dof ry
    limits (-180.0 0.0)
  end
  begin
     id 28
     name rhand
     direction -1 -4.49043e-011 3.22136e-026   
     length 0.784497   
     axis -2.0555e-014 -90 -90   XYZ
    dof rx rz
    limits (-90.0 90.0)
           (-45.0 45.0)
  end
  begin
     id 29
     name rfingers
     direction -1 -4.48823e-011 6.44272e-026   
     length 0.632482   
     axis -4.11101e-014 -90 -90   XYZ
    dof rx
    limits (0.0 90.0)
  end
  begin
     id 30
     name rthumb
     direction -0.707107 -6.34923e-011 0.707107   
     length 0.908121   
     axis -90 -45 -2.85299e-015   XYZ
    dof rx rz
    limits (-45.0 45.0)
           (-45.0 45.0)
  end
:hierarchy
  begin
    root lhipjoint rhipjoint lowerback
    lhipjoint lfemur
    lfemur ltibia
    ltibia lfoot
    lfoot ltoes
    rhipjoint rfemur
    rfemur rtibia
    rtibia rfoot
    rfoot rtoes
    lowerback upperback
    upperback thorax
    thorax lowerneck lclavicle rclavicle
    lowerneck upperneck
    upperneck head
    lclavicle lhumerus
    lhumerus lradius
    lradius lwrist
    lwrist lhand lthumb
    lhand lfingers
    rclavicle rhumerus
    rhumerus rradius
    rradius rwrist
    rwrist rhand rthumb
    rhand rfingers
  end

#!OML:ASF E:\Style6\Style6.ASF
:FULLY-SPECIFIED
:DEGREES
1616
root 0.840068 18.0609 -0.252482 15.0542 26.3115 -2.95534
lowerback 10.6327 3.38648 6.7498
upperback -4.4561 6.16891 5.26655
thorax -10.7339 2.73389 0.715242
lowerneck -8.73441 -5.50583 2.8156
upperneck -3.31687 -7.66001 -14.3455
head -0.200409 -3.97549 -4.92518
rclavicle 2.5842e-014 1.11319e-014
rhumerus 49.0113 -37.3039 -38.9073
rradius 33.5119
rwrist 17.5429
rhand 0.0279258 -2.76593
rfingers 7.12502
rthumb 25.6171 -31.0628
lclavicle 2.5842e-014 1.11319e-014
lhumerus -22.3589 27.0858 1.88227
lradius 50.6223
lwrist 17.4351
lhand -16.3019 32.6166
lfingers 7.12502
lthumb 9.90886 62.3634
rfemur -21.2455 -1.91858 20.619
rtibia 18.9601
rfoot -18.8176 -22.0603
rtoes 22.0046
lfemur -33.8538 -12.7638 -12.1258
ltibia 26.283
lfoot -5.40904 -9.80701
ltoes -10.5261
1617
root 0.854864 18.0671 -0.250149 15.2039 26.1058 -2.86872
lowerback 10.5876 3.41698 6.76911
upperback -4.43006 6.21442 5.34943
thorax -10.6855 2.76033 0.788831
lowerneck -8.82379 -5.45306 2.78104
upperneck -3.40717 -7.5952 -14.446
head -0.208114 -3.94299 -4.95203
rclavicle 5.64548e-014 7.4743e-014
rhumerus 48.724 -37.227 -38.6176
rradius 33.4935
rwrist 16.7975
rhand -0.56717 -3.03983
rfingers 7.12502
rthumb 25.047 -31.4175
lclavicle 5.64548e-014 7.4743e-014
lhumerus -22.1724 27.2752 1.70376
lradius 50.3519
lwrist 17.2763
lhand -16.3001 32.3544
lfingers 7.12502
lthumb 9.91066 62.1011
rfemur -21.2605 -1.46155 20.3765
rtibia 18.8035
rfoot -19.363 -22.0328
rtoes 23.7385
lfemur -33.7791 -12.7326 -12.2471
ltibia 26.0382
lfoot -5.28807 -9.70061
ltoes -10.4039
1618
root 0.87077 18.0738 -0.247896 15.4226 25.9156 -2.59042
lowerback 10.5998 3.39668 6.70498
upperback -4.43041 6.17482 5.31965
thorax -10.6962 2.74365 0.798439
lowerneck -8.90121 -5.39509 2.85716
upperneck -3.51163 -7.53645 -14.5069
head -0.225194 -3.91386 -4.98409
rclavicle -7.95139e-016 -9.54166e-015
rhumerus 48.6606 -37.3232 -38.8251
rradius 33.525
rwrist 16.6257
rhand -0.570453 -3.21542
rfingers 7.12502
rthumb 25.0439 -31.5935
lclavicle -7.95139e-016 -9.54166e-015
lhumerus -22.0265 27.3142 1.37234
lradius 50.1767
lwrist 17.1873
lhand -16.3068 32.2102
lfingers 7.12502
lthumb 9.90418 61.9573
rfemur -21.2508 -1.08775 19.9455
rtibia 18.6476
rfoot -19.7787 -22.0407
rtoes 25.0721
lfemur -33.6881 -12.7314 -12.5699
ltibia 25.7934
lfoot -5.14829 -9.64565
ltoes -10.1933
1619
root 0.885152 18.0792 -0.246632 15.5832 25.7585 -2.39696
lowerback 10.7466 3.35299 6.77645
upperback -4.50728 6.142 5.24188
thorax -10.855 2.71231 0.67153
lowerneck -8.96414 -5.33541 3.00205
upperneck -3.47518 -7.46676 -14.552
head -0.204314 -3.88577 -5.024
rclavicle 3.18055e-015 -6.36111e-015
rhumerus 48.5899 -37.5145 -39.2089
rradius 33.5131
rwrist 17.0007
rhand -0.0925113 -3.25684
rfingers 7.12502
rthumb 25.5018 -31.5703
lclavicle 3.18055e-015 -6.36111e-015
lhumerus -21.8005 27.1643 0.987987
lradius 50.0359
lwrist 17.2058
lhand -16.331 32.2085
lfingers 7.12502
lthumb 9.8808 61.9566
rfemur -21.2292 -0.681437 19.6062
rtibia 18.4899
rfoot -20.1203 -22.1951
rtoes 25.9774
lfemur -33.5965 -12.7326 -12.804
ltibia 25.5689
lfoot -5.02679 -9.58738
ltoes -10.306
1620
root 0.900429 18.0835 -0.244135 15.6833 25.6315 -2.4078
lowerback 10.7179 3.34591 6.88902
upperback -4.52089 6.159 5.33605
thorax -10.8546 2.71722 0.710218
lowerneck -8.95099 -5.31219 3.07217
upperneck -3.58036 -7.45781 -14.7143
head -0.243552 -3.87855 -5.08314
rclavicle -2.98177e-014 -8.5875e-014
rhumerus 48.5663 -37.6862 -39.3511
rradius 33.4499
rwrist 17.2035
rhand 0.0120779 -3.3173
rfingers 7.12502
rthumb 25.6019 -31.6164
lclavicle -2.98177e-014 -8.5875e-014
lhumerus -21.6349 27.0367 0.792292
lradius 49.8997
lwrist 17.2075
lhand -16.3257 32.304
lfingers 7.12502
lthumb 9.88593 62.0519
rfemur -21.2444 -0.273903 19.4789
rtibia 18.3483
rfoot -20.3713 -22.369
rtoes 26.5603
lfemur -33.554 -12.7117 -12.8278
ltibia 25.3719
lfoot -4.94569 -9.48735
ltoes -10.8037
1621
root 0.914979 18.0886 -0.241814 15.7647 25.5275 -2.46683
lowerback 10.5568 3.3664 6.89177
upperback -4.46149 6.19292 5.59365
thorax -10.724 2.75197 0.991389
lowerneck -8.89388 -5.32776 2.93981
upperneck -3.81353 -7.49709 -14.8801
head -0.324793 -3.88505 -5.10721
rclavicle -3.85642e-014 -9.70069e-014
rhumerus 48.6531 -37.8456 -39.3532
rradius 33.3902
rwrist 17.3649
rhand 0.0207579 -3.36631
rfingers 7.12502
rthumb 25.6103 -31.6642
lclavicle -3.85642e-014 -9.70069e-014
lhumerus -21.6029 27.0987 0.768767
lradius 49.7736
lwrist 17.0978
lhand -16.3868 32.3708
lfingers 7.12502
lthumb 9.82695 62.1215
rfemur -21.2411 0.221538 19.3801
rtibia 18.1772
rfoot -20.7077 -22.5917
rtoes 27.1418
lfemur -33.5466 -12.7064 -12.7859
ltibia 25.233
lfoot -4.92215 -9.37455
ltoes -11.0985
1622
root 0.928739 18.0923 -0.240653 15.9103 25.3966 -2.41189
lowerback 10.4734 3.38751 6.8592
upperback -4.44609 6.22715 5.7764
thorax -10.6837 2.78186 1.2057
lowerneck -8.91319 -5.32104 2.72416
upperneck -3.91805 -7.48 -14.9503
head -0.344956 -3.87005 -5.09284
rclavicle 4.05521e-014 3.49861e-014
rhumerus 48.5193 -37.9142 -39.1707
rradius 33.3965
rwrist 17.3241
rhand 0.0638326 -3.49214
rfingers 7.12502
rthumb 25.6515 -31.7841
lclavicle 4.05521e-014 3.49861e-014
lhumerus -21.4857 27.2411 0.743285
lradius 49.571
lwrist 16.8522
lhand -16.3867 32.4027
lfingers 7.12502
lthumb 9.82706 62.1534
rfemur -21.2458 0.617231 19.1793
rtibia 17.9635
rfoot -21.0157 -22.7135
rtoes 27.8842
lfemur -33.5683 -12.7112 -12.8522
ltibia 25.1235
lfoot -4.87531 -9.29401
ltoes -11.3497
